<?xml version="1.0" encoding="utf-8"?>

<!DOCTYPE svg PUBLIC "-//W3C//DTD SVG 1.1//EN" "http://www.w3.org/Graphics/SVG/1.1/DTD/svg11.dtd">
<!-- Uploaded to: SVG Repo, www.svgrepo.com, Generator: SVG Repo Mixer Tools -->
<svg version="1.1" id="_x32_" xmlns="http://www.w3.org/2000/svg" xmlns:xlink="http://www.w3.org/1999/xlink" 
	 width="800px" height="800px" viewBox="0 0 512 512"  xml:space="preserve">
<style type="text/css">
<![CDATA[
	.st0{fill:#000000;}
]]>
</style>
<g>
	<path class="st0" d="M96.208,206.832c-5.281,3-8.547,8.609-8.547,14.688v20.672c0,9.219,7.406,16.75,16.625,16.891l75.766,1.234
		v-13.422l-66.844-39.891C107.989,203.895,101.504,203.816,96.208,206.832z"/>
	<path class="st0" d="M87.661,285.332v20.672c0,6.078,3.266,11.703,8.547,14.703c5.297,3,11.781,2.938,17-0.188l66.844-39.891
		v-13.406l-75.766,1.219C95.067,268.598,87.661,276.113,87.661,285.332z"/>
	<path class="st0" d="M260.536,141.082c20.656,23.25,35.766,29.813,65.578,29.813c14.297,0,87.406-1.203,87.406-1.203
		s9.547-21.453,10.734-26.219c1.203-4.766-10.734-5.969-10.734-5.969c-67.953-11.922-72.984-61.328-87.047-76.266
		c-4.344-6.594-17.266-61.234-17.266-61.234l-16.891,0.984c0,0,4.969,24.844-4.969,31.797s-42.719,0-51.656-25.828
		c-4.969,0-13.906,3.969-13.906,3.969s16.891,24.844-6.953,43.719s-42.719-1-42.719-1l-7.953,15.906c0,0,25.828,8.938,24.828,33.781
		c-0.984,24.828-29.797,24.844-29.797,24.844l0.984,12.906c0,0,27.828-2.984,27.828,40.734c0,2.125,0.172,3.797,0.5,5.078v90.813
		v64.563v49.469v24.734v3.547c0.016,1.375,0.078,2.719,0.141,4.094c0.172,2.719,0.438,5.422,0.813,8.109
		c0.766,5.391,1.969,10.703,3.609,15.844c3.25,10.313,8.188,20.016,14.406,28.672c1.578,2.172,3.219,4.266,4.922,6.281
		c1.719,2.063,3.75,4.266,5.797,6.25c4.141,4.031,8.766,7.656,13.75,10.734c9.953,6.188,21.328,10.078,32.781,11.406
		c11.469,1.375,23.031,0.297,33.922-2.906c10.875-3.203,21.125-8.578,30-15.828l1.656-1.391l1.734-1.563
		c1.156-1.063,2.25-2.156,3.328-3.297c2.125-2.25,4.109-4.641,5.922-7.156c3.625-5.031,6.547-10.5,8.75-16.266
		c4.375-11.5,5.828-24.328,3.391-37.109c-1.219-6.375-3.469-12.719-6.719-18.547c-1.609-2.938-3.484-5.719-5.563-8.344
		c-1.047-1.313-2.125-2.578-3.266-3.781c-0.547-0.625-1.141-1.203-1.719-1.797c-0.656-0.625-1.313-1.266-2.016-1.875
		c-5.5-4.938-12.109-8.656-18.906-10.891c-6.844-2.25-13.859-3.109-20.75-2.766c-6.906,0.375-13.734,1.875-20.391,4.844
		c-6.594,2.969-13.203,7.422-18.625,14.266c-1.344,1.703-2.609,3.563-3.734,5.531l-0.406,0.75l-0.563,1.063l-0.344,0.703
		l-0.547,1.188l-0.766,1.719c-1.594,3.906-2.766,8.188-3.172,13.031c-0.391,4.797,0.078,10,1.609,14.922
		c1.516,4.922,4,9.5,7.25,13.438c1.641,1.984,3.469,3.813,5.594,5.531c2.141,1.719,4.547,3.328,7.766,4.766
		c1.609,0.719,3.406,1.391,5.828,1.953l1.422,0.313l1.438,0.25l1.125,0.141c2.922,0.344,5.906,0.344,9.031-0.078
		c3.109-0.438,6.391-1.281,9.922-2.969c1.797-0.875,3.641-1.969,5.547-3.438c1.922-1.5,3.922-3.422,5.75-5.984
		c1.828-2.516,3.469-5.766,4.359-9.453c0.906-3.656,0.984-7.563,0.406-10.922c-1.219-6.922-4.141-11.016-6.484-13.953l-8.734,7.266
		c1.469,1.969,3.141,4.563,3.75,8.578c0.281,1.953,0.188,4.172-0.375,6.234c-0.547,2.078-1.516,3.891-2.609,5.344
		c-2.219,2.891-4.688,4.344-6.891,5.344c-2.234,0.953-4.328,1.422-6.359,1.594c-2.016,0.188-3.953,0.094-5.828-0.219
		c-0.438-0.063-0.984-0.172-1.578-0.313c-0.703-0.141-0.734-0.203-1.031-0.281c-1.375-0.375-2.422-0.813-3.391-1.297
		c-3.766-1.938-6.141-4.344-8.188-7.047c-4.016-5.344-5.625-12.375-4.688-18.531c0.453-3.094,1.391-5.875,2.625-8.422l0.531-1.031
		l0.266-0.5l0.203-0.344l0.406-0.656l0.344-0.578l0.297-0.453c0.797-1.219,1.672-2.359,2.609-3.406
		c3.797-4.172,8.438-6.906,13.141-8.609c4.734-1.703,9.594-2.406,14.391-2.281c9.531,0.219,18.938,4.047,25.281,10.766
		c6.234,6.594,9.844,15.031,10.688,23.484c0.859,8.453-0.859,16.844-4.422,24.094c-7,14.766-21.813,23.453-36.547,26.328
		c-14.844,2.891-30.141-0.656-40.781-9.109c-2.688-2.109-5.109-4.469-7.25-7.063c-1.078-1.313-2.031-2.625-3.016-4.078
		c-1-1.484-1.938-2.984-2.813-4.5c-3.469-6.109-5.906-12.625-7.219-19.203c-0.656-3.297-1.016-6.594-1.094-9.875
		c-0.047-1.641-0.031-3.266,0.063-4.875c0.078-1.703,0.281-2.969,0.469-5.203c0,0-1.516-11.797,5.203-24.781
		c6.703-13,17.141-24.766,34.516-34.203c17.391-9.438,65.094-31.781,62.109-83.953c-2.781-48.609-38.469-68.281-67.063-96.875
		C255.067,168.41,248.614,127.676,260.536,141.082z"/>
</g>
</svg>